#!OML:ASF H:\BabyWalks\Project 1\Capture day 1\Session 1\baby.ASF
:FULLY-SPECIFIED
:DEGREES
540
root -8.26027 18.4469 1.98666 459.995 -69.0276 -462.708
lowerback 23.8794 3.37704 0.478084
upperback 7.74472 3.84173 0.774149
thorax -4.77464 1.5726 -0.455951
lowerneck -7.76648 4.82634 10.1978
upperneck 19.5227 6.08967 -7.07867
head 7.82667 2.88271 -3.49435
rclavicle 9.54166e-015 -4.77083e-014
rhumerus -38.4495 -11.4379 -56.8762
rradius 73.359
rwrist 11.9893
rhand -26.7535 -27.6716
rfingers 7.12502
rthumb -0.181985 -57.6513
lclavicle 9.54166e-015 -4.77083e-014
lhumerus -39.2881 -1.33231 73.6591
lradius 51.9302
lwrist 7.81332
lhand -4.31664 16.334
lfingers 7.12502
lthumb 21.4499 45.1665
rfemur -52.4633 -12.2144 6.82158
rtibia 31.6248
rfoot -8.24317 -4.55552
rtoes -15.4812
lfemur -3.68791 2.21635 -4.29817
ltibia 20.4769
lfoot -11.0308 22.7895
ltoes 11.1803
541
root -8.26683 18.43 2.00055 461.499 -69.1785 -464.082
lowerback 23.8494 3.38345 0.372505
upperback 7.71823 3.82015 0.68454
thorax -4.78959 1.56244 -0.486221
lowerneck -7.82438 4.86328 10.1691
upperneck 19.5906 6.15471 -7.15733
head 7.86689 2.9024 -3.50926
rclavicle -1.59028e-014 1.27222e-014
rhumerus -38.422 -11.1213 -57.2756
rradius 73.3782
rwrist 12.1333
rhand -26.2775 -27.4632
rfingers 7.12502
rthumb 0.277741 -57.4427
lclavicle -1.59028e-014 1.27222e-014
lhumerus -39.3015 -1.28324 73.6724
lradius 51.5559
lwrist 7.64439
lhand -4.06319 16.4337
lfingers 7.12502
lthumb 21.6933 45.2383
rfemur -53.1759 -13.5722 9.41234
rtibia 30.3673
rfoot -7.56235 -1.77319
rtoes -17.1465
lfemur -3.97027 2.44567 -4.62468
ltibia 21.0203
lfoot -11.422 23.0757
ltoes 11.2605
542
root -8.27279 18.4133 2.01238 462.909 -69.3263 -465.386
lowerback 23.8468 3.3815 0.256449
upperback 7.69415 3.78549 0.605577
thorax -4.81715 1.54533 -0.496734
lowerneck -7.84153 4.89195 10.1511
upperneck 19.6222 6.21301 -7.25321
head 7.88796 2.91896 -3.53278
rclavicle -3.02153e-014 -8.5875e-014
rhumerus -38.3884 -10.7765 -57.6691
rradius 73.3722
rwrist 12.2317
rhand -25.7781 -27.2891
rfingers 7.12502
rthumb 0.760108 -57.2675
lclavicle -3.02153e-014 -8.5875e-014
lhumerus -39.3306 -1.23285 73.6822
lradius 51.2324
lwrist 7.46353
lhand -3.79754 16.5565
lfingers 7.12502
lthumb 21.9484 45.3314
rfemur -54.0426 -14.9006 12.0413
rtibia 29.772
rfoot -6.80657 1.03182
rtoes -18.1354
lfemur -4.22309 2.66302 -4.94623
ltibia 21.529
lfoot -11.7885 23.3327
ltoes 11.3252
543
root -8.27766 18.3971 2.02246 464.217 -69.4725 -466.613
lowerback 23.8698 3.37278 0.143087
upperback 7.67739 3.7419 0.533747
thorax -4.84975 1.52329 -0.499574
lowerneck -7.8559 4.91886 10.122
upperneck 19.6422 6.26873 -7.33817
head 7.90378 2.93462 -3.55096
rclavicle -6.99722e-014 -3.49861e-014
rhumerus -38.3597 -10.4273 -58.0591
rradius 73.3517
rwrist 12.2776
rhand -25.2677 -27.1564
rfingers 7.12502
rthumb 1.25298 -57.1324
lclavicle -6.99722e-014 -3.49861e-014
lhumerus -39.3573 -1.19777 73.6905
lradius 50.9561
lwrist 7.28163
lhand -3.52889 16.7014
lfingers 7.12502
lthumb 22.2063 45.4458
rfemur -55.0101 -16.1078 14.5946
rtibia 29.8062
rfoot -5.94078 3.59634
rtoes -18.4047
lfemur -4.41402 2.87363 -5.26164
ltibia 21.9285
lfoot -12.0825 23.5491
ltoes 11.3649
544
root -8.28131 18.3819 2.03087 465.426 -69.6217 -467.766
lowerback 23.9129 3.35696 0.0259103
upperback 7.66685 3.68774 0.469558
thorax -4.88633 1.49564 -0.489812
lowerneck -7.86741 4.94569 10.0783
upperneck 19.6544 6.32522 -7.41489
head 7.91581 2.95041 -3.56378
rclavicle -4.29375e-014 4.45278e-014
rhumerus -38.3339 -10.0693 -58.443
rradius 73.3139
rwrist 12.2718
rhand -24.7362 -27.081
rfingers 7.12502
rthumb 1.76634 -57.0534
lclavicle -4.29375e-014 4.45278e-014
lhumerus -39.389 -1.16924 73.6974
lradius 50.7301
lwrist 7.09933
lhand -3.26667 16.848
lfingers 7.12502
lthumb 22.458 45.5622
rfemur -56.0542 -17.1301 16.9773
rtibia 30.4983
rfoot -5.08131 5.69892
rtoes -18.1556
lfemur -4.58173 3.08397 -5.57389
ltibia 22.3008
lfoot -12.3505 23.7279
ltoes 11.3798
545
root -8.28403 18.3674 2.0375 466.535 -69.7745 -468.841
lowerback 23.9682 3.33113 -0.0980452
upperback 7.6667 3.61855 0.416386
thorax -4.91876 1.46018 -0.460369
lowerneck -7.84607 4.9723 10.041
upperneck 19.6305 6.38655 -7.51239
head 7.91123 2.968 -3.58437
rclavicle 3.73715e-014 -6.36111e-015
rhumerus -38.2938 -9.68572 -58.8198
rradius 73.2533
rwrist 12.2076
rhand -24.1992 -27.0646
rfingers 7.12502
rthumb 2.285 -57.0321
lclavicle 3.73715e-014 -6.36111e-015
lhumerus -39.4254 -1.13087 73.7047
lradius 50.5525
lwrist 6.91955
lhand -3.02503 16.982
lfingers 7.12502
lthumb 22.6899 45.668
rfemur -57.1215 -17.9433 19.1282
rtibia 31.7853
rfoot -4.28269 7.18289
rtoes -17.6294
lfemur -4.72913 3.30066 -5.87992
ltibia 22.6541
lfoot -12.5978 23.8647
ltoes 11.3674
